<svg width="45" height="45" viewBox="0 0 45 45" fill="none" xmlns="http://www.w3.org/2000/svg">
<path d="M45 22.6378C45 10.1334 34.9256 -0.00280762 22.5 -0.00280762C10.0687 4.88292e-06 -0.00563049 10.1334 -0.00563049 22.6406C-0.00563049 33.9384 8.22374 43.3041 18.9787 45.0028V29.1825H13.2694V22.6406H18.9844V17.6484C18.9844 11.9756 22.3453 8.8425 27.4837 8.8425C29.9475 8.8425 32.5209 9.28407 32.5209 9.28407V14.8528H29.6831C26.8903 14.8528 26.0184 16.5994 26.0184 18.3909V22.6378H32.2566L31.2609 29.1797H26.0156V45C36.7706 43.3013 45 33.9356 45 22.6378Z" fill="black"/>
</svg>
