<svg width="239" height="240" viewBox="0 0 239 240" fill="none" xmlns="http://www.w3.org/2000/svg">
<path d="M120.578 199.413C163.428 199.413 198.165 164.676 198.165 121.825C198.165 78.9752 163.428 44.2383 120.578 44.2383C77.7275 44.2383 42.9905 78.9752 42.9905 121.825C42.9905 164.676 77.7275 199.413 120.578 199.413Z" fill="#5E6CE5"/>
<path d="M96.6811 161.499L90.2364 178.464L97.6589 181.284L104.104 164.318L96.6811 161.499Z" fill="#8E7325"/>
<path d="M144.256 161.154L137.071 164.533L144.795 180.956L151.98 177.577L144.256 161.154Z" fill="#8E7325"/>
<path d="M120.351 203.156C134.76 203.156 146.44 189.698 146.44 173.096C146.44 156.495 134.76 143.037 120.351 143.037C105.942 143.037 94.2617 156.495 94.2617 173.096C94.2617 189.698 105.942 203.156 120.351 203.156Z" fill="#8E7325"/>
<path d="M150.864 126.476L140.088 106.512C138.046 102.655 139.407 97.8914 143.264 95.7362C147.121 93.6944 151.885 95.0556 154.04 98.9122L164.816 118.876C166.858 122.733 165.497 127.497 161.64 129.652C157.783 131.694 152.906 130.333 150.864 126.476Z" fill="#8E7325"/>
<path d="M75.999 117.288L88.7034 98.4586C91.1989 94.8288 96.0764 93.8079 99.7062 96.3034C103.336 98.7989 104.357 103.676 101.861 107.306L89.1571 126.136C86.6616 129.766 81.784 130.787 78.1542 128.291C74.5244 125.909 73.617 120.918 75.999 117.288Z" fill="#8E7325"/>
<path d="M122.052 113.545C138.027 113.545 150.977 106.435 150.977 97.6645C150.977 88.894 138.027 81.7841 122.052 81.7841C106.077 81.7841 93.1273 88.894 93.1273 97.6645C93.1273 106.435 106.077 113.545 122.052 113.545Z" fill="#8E7325"/>
<path d="M106.739 131.694C114.257 131.694 120.351 123.314 120.351 112.978C120.351 102.641 114.257 94.2616 106.739 94.2616C99.2215 94.2616 93.1273 102.641 93.1273 112.978C93.1273 123.314 99.2215 131.694 106.739 131.694Z" fill="#FDFBE0"/>
<path d="M133.963 131.694C141.48 131.694 147.574 123.314 147.574 112.978C147.574 102.641 141.48 94.2616 133.963 94.2616C126.445 94.2616 120.351 102.641 120.351 112.978C120.351 123.314 126.445 131.694 133.963 131.694Z" fill="#FDFBE0"/>
<path d="M133.396 124.888C134.962 124.888 136.231 122.095 136.231 118.649C136.231 115.204 134.962 112.411 133.396 112.411C131.829 112.411 130.56 115.204 130.56 118.649C130.56 122.095 131.829 124.888 133.396 124.888Z" fill="black"/>
<path d="M107.306 124.888C108.872 124.888 110.142 122.095 110.142 118.649C110.142 115.204 108.872 112.411 107.306 112.411C105.74 112.411 104.47 115.204 104.47 118.649C104.47 122.095 105.74 124.888 107.306 124.888Z" fill="black"/>
<path d="M120.124 198.732C127.516 198.732 133.509 191.063 133.509 181.604C133.509 172.144 127.516 164.476 120.124 164.476C112.732 164.476 106.739 172.144 106.739 181.604C106.739 191.063 112.732 198.732 120.124 198.732Z" fill="#F9D987"/>
<path d="M119.784 167.992C124.482 167.992 128.291 163.167 128.291 157.216C128.291 151.265 124.482 146.44 119.784 146.44C115.085 146.44 111.276 151.265 111.276 157.216C111.276 163.167 115.085 167.992 119.784 167.992Z" fill="#F98282"/>
<path d="M119.784 164.589V152.112" stroke="black"/>
<path d="M120.351 154.38C135.386 154.38 147.574 147.016 147.574 137.933C147.574 128.849 135.386 121.485 120.351 121.485C105.316 121.485 93.1273 128.849 93.1273 137.933C93.1273 147.016 105.316 154.38 120.351 154.38Z" fill="#937B41"/>
<path d="M120.351 131.694C125.362 131.694 129.425 127.631 129.425 122.619C129.425 117.608 125.362 113.545 120.351 113.545C115.339 113.545 111.276 117.608 111.276 122.619C111.276 127.631 115.339 131.694 120.351 131.694Z" fill="#0D0F0C"/>
<path d="M120.804 197.484C162.778 197.484 196.803 163.458 196.803 121.485C196.803 79.5119 162.778 45.486 120.804 45.486C78.8313 45.486 44.8053 79.5119 44.8053 121.485C44.8053 163.458 78.8313 197.484 120.804 197.484Z" stroke="#0A1911" stroke-width="10"/>
<path d="M92.5604 191.813C98.5118 191.813 103.336 188.258 103.336 183.872C103.336 179.487 98.5118 175.932 92.5604 175.932C86.609 175.932 81.7844 179.487 81.7844 183.872C81.7844 188.258 86.609 191.813 92.5604 191.813Z" fill="#F9D987"/>
<path d="M147.007 191.813C152.959 191.813 157.783 188.258 157.783 183.872C157.783 179.487 152.959 175.932 147.007 175.932C141.056 175.932 136.231 179.487 136.231 183.872C136.231 188.258 141.056 191.813 147.007 191.813Z" fill="#F9D987"/>
<path d="M109.19 58.3595L81.6813 71.8259L94.1502 97.297L121.659 83.8305L109.19 58.3595Z" fill="#F8F263"/>
<path d="M82.3514 61.5933L90.5184 67.038L81.6708 71.3484L82.3514 61.5933Z" fill="#F8F263"/>
<path d="M91.4259 57.0559L99.5929 62.3872L90.8587 66.9244L91.4259 57.0559Z" fill="#F8F263"/>
<path d="M100.5 52.5188L108.667 57.8501L99.9332 62.3873L100.5 52.5188Z" fill="#F8F263"/>
<path d="M20.5311 110.029L4.76412 107.193C4.42383 107.079 4.19696 107.193 3.9701 107.306C3.74324 107.42 3.62981 107.647 3.51638 108.1C3.28951 109.348 2.94922 109.915 2.38206 109.802C1.8149 109.688 1.36118 109.575 0.907452 109.348C0.453726 109.121 0.113431 108.781 0 108.554C0.453726 107.193 0.79402 105.151 1.36118 102.542C1.47461 101.635 1.70147 100.5 1.8149 99.1391C1.92833 97.778 2.04177 96.8705 2.1552 96.4168C2.38206 95.2825 2.72236 94.1482 3.17608 93.2407C3.62981 92.3333 4.19696 91.5392 4.76412 90.9721C5.33128 90.4049 6.01187 89.8378 6.80589 89.4975C7.59991 89.1572 8.2805 88.9303 9.07452 88.8169C9.86854 88.7035 10.5491 88.7035 11.3431 88.8169C12.2506 89.0437 13.158 89.384 13.9521 89.9512C14.7461 90.5184 15.4267 91.1989 15.9938 91.993C16.561 92.787 17.0147 93.9213 17.1281 95.169C17.355 96.4168 17.355 97.778 17.0147 99.1391L15.8804 105.491L21.0983 106.399C21.2117 106.399 21.4385 106.399 21.4385 106.399C21.552 106.399 21.6654 106.399 21.7788 106.285C21.8923 106.285 22.0057 106.172 22.1191 106.058C22.2326 105.945 22.2326 105.718 22.346 105.491C22.4594 105.038 22.5729 104.584 22.7997 104.244C23.0266 103.903 23.2534 103.79 23.4803 103.79C24.0475 103.903 24.6146 104.017 25.0684 104.244C25.5221 104.47 25.8624 104.697 25.9758 104.924C25.5221 106.512 25.2952 107.76 25.0684 108.894C24.8415 109.915 24.7281 111.276 24.5012 112.864C24.2743 113.091 23.934 113.318 23.3669 113.318C22.7997 113.318 22.2326 113.318 21.6654 113.205C21.4385 113.205 21.2117 112.978 21.2117 112.524C21.0982 112.184 21.2117 111.73 21.2117 111.163C21.3251 110.709 21.2117 110.482 21.0983 110.255C21.0983 110.255 20.8714 110.142 20.5311 110.029ZM13.2715 104.811L14.4058 98.4586C14.7461 96.8705 14.5192 95.5093 13.7252 94.375C12.9312 93.2407 12.0237 92.6736 10.776 92.4467C9.52824 92.2198 8.2805 92.4467 7.25961 93.2407C6.1253 93.9213 5.44471 95.169 5.10442 96.8705L3.9701 103.223L13.2715 104.811Z" fill="black"/>
<path d="M11.5702 67.2649C13.9523 63.5217 15.5403 61.0262 16.2209 59.665C16.788 58.7576 17.2418 57.8501 17.8089 56.8292C18.3761 55.8083 18.8298 54.9009 19.2835 53.9934C19.7373 53.086 20.0775 52.6323 20.191 52.4054C20.4178 52.292 21.5522 52.6323 23.5939 53.1994C25.6357 53.7666 26.8834 54.2203 27.2237 54.4472C27.3372 54.4472 27.3372 54.5606 27.4506 54.674C27.564 54.7875 27.564 55.0143 27.6775 55.2412C27.6775 55.468 27.6775 55.6949 27.6775 56.0352C27.564 56.3755 27.4506 56.7158 27.2237 57.0561C27.1103 57.1695 26.77 57.1695 25.976 57.0561C25.2954 56.8292 24.3879 56.6024 23.4805 56.3755C22.573 56.0352 22.0059 55.9218 21.6656 55.9218C21.2119 56.6024 20.5313 57.7367 19.6238 59.4382C18.7164 61.0262 17.9224 62.3874 17.3552 63.2948C17.2418 63.4082 17.2418 63.6351 17.3552 63.7485C17.4686 63.862 17.4686 63.9754 17.5821 64.0888C17.6955 64.2023 17.8089 64.2023 18.0358 64.3157L23.4805 67.4918C23.5939 66.8112 23.8208 66.0172 24.1611 65.1097C24.5014 64.2023 24.8417 63.4082 25.2954 62.7277C25.6357 62.1605 26.0894 61.8202 26.5431 61.5933C26.9969 61.3665 27.564 61.4799 28.2446 61.9336C28.8118 62.2739 29.1521 62.7277 29.2655 63.2948C29.3789 63.862 29.3789 64.4291 29.0386 64.8829C27.7909 65.1097 26.77 65.7903 25.976 67.0381C25.7491 67.3784 25.5223 67.9455 25.2954 68.5127L32.4416 72.7096C32.6684 72.8231 32.7819 72.9365 32.8953 72.9365C33.0087 72.9365 33.1222 72.9365 33.349 72.9365C33.4625 72.9365 33.5759 72.8231 33.6893 72.7096C34.2565 71.6887 35.1639 70.2141 36.1848 68.5127C37.2057 66.6978 37.9997 65.45 38.34 64.7694C38.1132 64.5426 37.6594 64.0888 36.9788 63.2948C36.1848 62.5008 35.5042 61.8202 34.9371 61.1396C34.3699 60.459 34.143 60.1187 34.2565 59.8919C34.4833 59.5516 34.7102 59.2113 34.9371 58.9844C35.1639 58.7576 35.3908 58.6441 35.6177 58.5307C35.8445 58.4173 36.0714 58.4173 36.1848 58.4173C36.2982 58.4173 36.4117 58.4173 36.5251 58.4173C36.8654 58.6441 37.9997 59.5516 39.5878 61.2531C41.2892 62.9545 42.0833 63.862 42.0833 64.0888C40.9489 65.7903 39.3609 68.3992 37.3191 71.9156C35.5042 74.9783 34.1431 77.5872 33.0087 79.7424C32.6684 79.8558 32.3281 79.9692 31.761 79.7424C31.1938 79.629 30.7401 79.4021 30.2864 79.0618C30.0595 78.9484 29.9461 78.7215 30.0595 78.2678C30.1729 77.9275 30.2864 77.4738 30.5132 77.02C30.7401 76.6797 30.8535 76.3394 30.7401 76.1126C30.6267 75.8857 30.3998 75.6588 30.173 75.5454L16.3343 67.4918C15.994 67.3784 15.7672 67.2649 15.5403 67.2649C15.3134 67.2649 15.0866 67.4918 14.8597 67.8321C14.1791 68.853 13.7254 69.3067 13.1582 68.9664C12.7045 68.7395 12.2508 68.3992 11.9105 67.9455C11.6836 67.9455 11.5702 67.6052 11.5702 67.2649Z" fill="black"/>
<path d="M43.3309 27.9042C44.3518 26.9967 45.1458 26.4296 45.3727 25.9758C45.713 26.3161 46.3936 26.7699 47.301 27.4504C48.3219 28.131 48.8891 28.4713 49.1159 28.5848L64.0889 36.9787C64.4292 37.2055 64.656 37.2055 64.9963 37.2055C65.2232 37.2055 65.5635 37.0921 65.9038 36.7518C66.2441 36.525 66.4709 36.2981 66.8112 36.1847C67.1515 36.0712 67.3784 36.0712 67.6052 36.2981C68.059 36.8652 68.3993 37.319 68.6261 37.6593C68.853 37.9996 68.9664 38.2264 68.9664 38.4533C67.6052 39.4742 66.4709 40.2682 65.6769 40.9488C63.9754 42.4234 62.8411 43.4443 62.274 44.0114C61.7068 43.6711 61.0262 42.9905 60.3456 42.1965C60.2322 41.9697 60.2322 41.7428 60.4591 41.4025C60.6859 41.0622 61.0262 40.8354 61.2531 40.4951C61.4799 40.1548 61.5934 39.9279 61.4799 39.8145C61.3665 39.701 61.2531 39.5876 61.0262 39.4742L56.9427 37.0921L50.2502 42.6503L51.9517 47.0741C52.0651 47.4144 52.1786 47.5278 52.1786 47.6412C52.292 47.8681 52.5189 47.7547 52.8592 47.5278C53.1994 47.3009 53.5397 47.0741 53.88 46.9607C54.2203 46.7338 54.4472 46.7338 54.6741 46.9607C55.4681 48.095 55.9218 48.889 56.0352 49.3427C54.5606 50.3636 53.4263 51.271 52.5189 51.9516C51.9517 52.4054 51.0442 53.3128 49.5696 54.674C49.3428 54.674 49.1159 54.5606 48.7756 54.2203C48.5488 53.88 48.2085 53.4262 47.7547 52.8591C47.6413 52.6322 47.6413 52.2919 47.8682 52.0651C47.9816 51.7248 48.2085 51.4979 48.5488 51.271C48.8891 51.0442 49.1159 50.7039 49.1159 50.477C49.1159 50.2502 49.1159 49.9099 49.0025 49.5696L43.3309 33.0086C43.2175 32.7817 43.104 32.5549 43.104 32.5549C42.9906 32.328 42.7638 32.328 42.5369 32.4414C42.31 32.5549 42.0832 32.6683 41.8563 32.8951C41.6294 33.122 41.4026 33.2354 41.1757 33.3489C40.9489 33.4623 40.722 33.3489 40.6086 33.122C40.6086 33.122 40.6086 33.0086 40.4951 33.0086C39.8145 31.9877 39.4742 31.1937 39.4742 30.8534C40.8354 30.0594 41.9697 29.0385 43.3309 27.9042ZM45.9398 30.6265C46.8473 33.5757 47.9816 36.7518 49.3428 40.2682L54.6741 35.8444C53.1994 34.9369 51.8383 34.0295 50.3637 33.2354C48.8891 32.328 47.7547 31.7608 47.0741 31.3071L45.9398 30.6265Z" fill="black"/>
<path d="M91.0854 11.7968L89.8377 12.2505C89.7242 12.2505 89.6108 12.2505 89.3839 12.1371C89.1571 12.0237 88.9302 11.7968 88.5899 11.57C88.2496 11.3431 87.9093 11.1162 87.569 10.7759C87.2287 10.4356 86.775 10.2088 86.3213 9.98191C85.8675 9.75505 85.4138 9.52819 84.8467 9.41476C84.3929 9.30132 83.8258 9.18789 83.2586 9.18789C82.6915 9.18789 82.1243 9.30132 81.5572 9.41476C80.5363 9.75505 79.7423 10.2088 79.0617 10.8894C78.3811 11.57 77.8139 12.2505 77.4736 13.0446C77.1333 13.8386 76.9065 14.746 76.6796 15.6535C76.5662 16.5609 76.5662 17.4684 76.6796 18.4893C76.793 19.3967 77.0199 20.4176 77.3602 21.3251C77.7005 22.2325 78.0408 23.0265 78.6079 23.8205C79.1751 24.6146 79.7423 25.1817 80.5363 25.7489C81.3303 26.316 82.1243 26.7698 83.0318 27.1101C83.9392 27.4504 84.9601 27.5638 85.981 27.5638C87.1153 27.5638 88.1362 27.3369 89.2705 26.8832C91.6526 25.9757 93.6943 24.3877 95.1689 22.1191C95.7361 22.4594 96.1898 23.0265 96.3032 23.4803C96.5301 24.2743 96.4167 25.0683 95.8495 25.9757C95.2824 26.8832 94.4883 27.6772 93.354 28.4712C92.3331 29.2653 91.1988 29.8324 89.9511 30.2861C88.363 30.8533 86.775 31.1936 85.3004 31.1936C83.8258 31.1936 82.4646 31.0802 81.2169 30.6264C79.9691 30.1727 78.8348 29.6056 77.8139 28.8115C76.793 28.0175 75.8856 27.1101 75.205 26.0892C74.5244 25.0683 73.9573 23.934 73.5035 22.6862C72.9364 21.0982 72.5961 19.3967 72.5961 17.6953C72.5961 15.9938 72.8229 14.5192 73.3901 13.0446C73.9573 11.57 74.7513 10.3222 75.8856 9.18789C77.0199 8.05358 78.3811 7.14613 79.9691 6.57897C80.99 6.23867 82.1243 6.12524 83.2586 6.12524C84.5064 6.23867 85.5273 6.57897 86.5481 7.25956C86.2078 5.67152 86.0944 4.76407 86.5481 4.65063L88.2496 3.97005C88.7033 3.74318 89.1571 4.19691 89.6108 5.33122L91.0854 9.52819C91.3123 10.0953 91.4257 10.5491 91.4257 10.8894C91.4257 11.2297 91.4257 11.3431 91.4257 11.4565C91.3123 11.57 91.1988 11.6834 91.0854 11.7968Z" fill="black"/>
<path d="M111.05 0C115.473 0.113431 118.423 0.226863 120.011 0.226863C121.032 0.226863 122.166 0.226863 123.3 0.226863C124.435 0.226863 125.455 0.113431 126.476 0.113431C127.497 0.113431 128.064 0 128.291 0C128.518 0.113431 128.858 1.24775 129.312 3.40294C129.766 5.44471 130.106 6.80589 130.106 7.14618C130.106 7.25961 130.106 7.37304 129.993 7.48648C129.879 7.59991 129.766 7.71334 129.652 7.9402C129.539 8.05363 129.199 8.2805 128.858 8.2805C128.518 8.39393 128.178 8.39393 127.724 8.39393C127.611 8.39393 127.384 8.05363 127.157 7.37304C126.93 6.69245 126.703 5.89844 126.59 4.87755C126.363 3.9701 126.249 3.28951 126.136 3.06265C125.342 3.06265 123.981 3.06265 122.052 3.06265C120.124 3.06265 118.65 3.06265 117.515 3.06265C117.402 3.06265 117.175 3.17608 117.175 3.28951C117.061 3.40294 117.061 3.51637 117.061 3.62981C117.061 3.74324 117.061 3.9701 117.061 4.08353V10.3223C117.742 10.0954 118.536 9.86854 119.444 9.7551C120.351 9.52824 121.258 9.52824 122.052 9.52824C122.733 9.52824 123.3 9.7551 123.64 10.0954C123.981 10.4357 124.208 11.0028 124.208 11.6834C124.208 12.2506 123.981 12.8178 123.527 13.2715C123.073 13.7252 122.62 13.8386 122.052 13.8386C121.258 12.8178 120.124 12.364 118.65 12.364C118.196 12.364 117.629 12.364 117.061 12.4775V20.8714C117.061 21.0982 117.061 21.3251 117.061 21.4385C117.061 21.552 117.175 21.6654 117.175 21.7788C117.288 21.8923 117.402 22.0057 117.515 22.0057C118.763 22.0057 120.351 22.0057 122.393 22.0057C124.435 22.0057 125.909 22.0057 126.703 22.0057C126.817 21.7788 127.043 21.0982 127.27 20.0774C127.497 19.0565 127.837 18.0356 128.064 17.2416C128.291 16.4476 128.631 15.9938 128.745 15.9938C129.199 15.9938 129.539 16.1073 129.879 16.2207C130.22 16.3341 130.446 16.4476 130.673 16.6744C130.9 16.7879 131.014 17.0147 131.014 17.1281C131.127 17.2416 131.127 17.355 131.127 17.4684C131.127 17.9222 130.787 19.2833 130.22 21.552C129.652 23.8206 129.199 25.0683 128.972 25.1818C126.93 25.0683 123.867 24.9549 119.897 24.9549C116.381 24.9549 113.432 24.9549 110.936 25.0683C110.596 24.8415 110.369 24.5012 110.256 24.0475C110.142 23.4803 110.029 22.9132 110.029 22.346C110.029 22.1191 110.256 21.8923 110.596 21.7788C110.936 21.6654 111.39 21.552 111.957 21.552C112.411 21.552 112.638 21.4385 112.751 21.3251C112.865 21.0982 112.978 20.8714 112.978 20.5311L113.091 4.53726C113.091 4.19696 112.978 3.9701 112.865 3.74324C112.751 3.51637 112.411 3.40294 112.07 3.40294C110.823 3.40294 110.256 3.06265 110.256 2.49549C110.256 1.92833 110.369 1.47461 110.482 0.907451C110.596 0.453726 110.823 0.113431 111.05 0Z" fill="black"/>
<path d="M161.073 7.82684C162.32 8.28056 163.228 8.62086 163.795 8.73429V8.84772C163.681 9.30145 163.568 10.0955 163.568 11.2298C163.455 12.3641 163.455 13.1581 163.455 13.385L163.681 30.5131C163.681 30.8534 163.795 31.1937 163.908 31.4206C164.022 31.6474 164.249 31.8743 164.702 31.9877C165.043 32.1012 165.383 32.328 165.61 32.5549C165.837 32.7818 165.95 33.0086 165.95 33.3489C165.61 34.0295 165.496 34.4832 165.269 34.937C165.156 35.2773 164.929 35.5041 164.702 35.6175C163.228 34.937 161.867 34.3698 160.846 34.0295C158.69 33.2355 157.216 32.7818 156.422 32.5549C156.422 31.8743 156.649 30.9669 157.102 29.946C157.216 29.7191 157.443 29.6057 157.783 29.7191C158.237 29.8325 158.577 29.8325 158.917 29.946C159.258 30.0594 159.598 29.946 159.598 29.7191C159.598 29.6057 159.711 29.3788 159.711 29.0385L159.825 24.2744L151.658 21.2118L148.708 24.8416C148.482 25.0684 148.368 25.2953 148.368 25.4087C148.255 25.6356 148.482 25.8624 148.822 25.9759C149.162 26.2027 149.503 26.3162 149.843 26.543C150.183 26.7699 150.297 26.9968 150.183 27.2236C149.616 28.4714 149.162 29.2654 148.822 29.6057C147.234 28.9251 145.873 28.3579 144.738 27.9042C144.058 27.6773 142.81 27.2236 140.882 26.6565C140.768 26.4296 140.768 26.2027 140.882 25.749C140.995 25.2953 141.222 24.8416 141.562 24.161C141.676 23.9341 142.016 23.8207 142.356 23.8207C142.697 23.8207 143.037 23.8207 143.377 24.0475C143.831 24.161 144.058 24.2744 144.398 24.161C144.625 24.0475 144.852 23.8207 145.192 23.5938L156.649 10.4358C156.762 10.2089 156.876 10.0955 156.989 9.98204C157.102 9.75517 156.989 9.64174 156.762 9.41488C156.535 9.30145 156.308 9.18802 156.082 9.07458C155.855 8.96115 155.628 8.84772 155.401 8.73429C155.174 8.50743 155.174 8.394 155.288 8.16713C155.288 8.16713 155.288 8.0537 155.401 8.0537C155.968 6.91939 156.422 6.2388 156.762 6.12537C158.01 6.69252 159.371 7.25968 161.073 7.82684ZM159.938 11.4566C157.896 13.7253 155.628 16.3342 153.246 19.2834L159.825 21.6655C159.938 19.964 159.938 18.2625 159.938 16.5611C159.938 14.8596 159.938 13.6118 159.938 12.7044V11.4566Z" fill="black"/>
<path d="M172.983 40.9488C172.87 40.6085 172.983 40.1547 173.21 39.701C173.437 39.2473 173.777 38.7936 174.117 38.3398C174.344 38.113 174.571 38.113 174.911 38.2264C175.252 38.3398 175.706 38.5667 176.046 38.907C176.386 39.1338 176.613 39.2473 176.84 39.2473C177.067 39.1338 177.294 39.0204 177.52 38.7936L187.843 26.543C188.07 26.3161 188.183 26.0892 188.183 25.8624C188.183 25.6355 188.07 25.4086 187.729 25.0684C186.822 24.2743 186.481 23.5937 186.822 23.2534C187.162 22.7997 187.616 22.4594 188.07 22.2326C188.523 21.8923 188.864 21.7788 189.204 21.8923C190.225 22.9132 191.699 24.2743 193.741 25.9758C194.422 26.543 195.443 27.337 196.577 28.2444C197.711 29.1519 198.505 29.719 198.846 29.9459C199.753 30.7399 200.434 31.5339 200.887 32.5548C201.341 33.4623 201.681 34.3697 201.681 35.2772C201.681 36.1846 201.568 36.9787 201.341 37.8861C201.114 38.6801 200.66 39.4741 200.093 40.1547C199.526 40.8353 198.732 41.289 197.711 41.6293C196.69 41.9696 195.669 41.8562 194.649 41.5159C195.216 42.5368 195.669 43.5577 195.783 44.5786C195.896 45.5994 195.783 46.5069 195.556 47.4143C195.329 48.2084 194.875 49.0024 194.308 49.683C193.741 50.3636 192.947 50.9307 192.153 51.3844C191.246 51.8382 190.338 52.065 189.317 52.065C188.296 52.1785 187.276 51.9516 186.028 51.4979C184.893 51.0442 183.759 50.3636 182.625 49.4561C182.398 49.2292 181.717 48.5487 180.356 47.4143C178.995 46.28 177.861 45.2591 176.953 44.3517C176.046 43.3308 174.685 42.3099 172.983 40.9488ZM190.111 39.701L185.234 35.504L179.902 41.8562C179.676 42.1965 179.562 42.4234 179.676 42.5368L185.007 47.0741C186.255 48.0949 187.389 48.5487 188.637 48.4352C189.884 48.3218 190.905 47.8681 191.586 46.9606C192.38 46.0532 192.72 44.9189 192.493 43.5577C192.38 42.1965 191.586 40.9488 190.111 39.701ZM186.935 33.5757L191.813 37.7727C192.834 38.5667 193.741 39.0204 194.762 38.907C195.783 38.907 196.577 38.4533 197.257 37.7727C197.938 36.9787 198.278 36.0712 198.278 35.0503C198.278 34.0294 197.825 33.122 197.031 32.4414L191.813 28.0176L186.935 33.5757Z" fill="black"/>
<path d="M219.15 52.7456C219.263 53.3127 219.83 54.4471 220.965 56.262C221.872 57.85 222.553 58.8709 222.893 59.3246C222.893 59.6649 222.78 60.0052 222.439 60.3455C222.099 60.6858 221.759 61.0261 221.305 61.2529C221.078 61.3664 220.851 61.3664 220.511 61.1395C220.284 60.9127 220.057 60.6858 219.83 60.3455C219.717 60.1186 219.603 60.0052 219.49 59.8918C219.377 59.7783 219.263 59.7783 219.15 59.7783C219.036 59.7783 218.923 59.7783 218.809 59.8918C218.696 59.8918 218.583 60.0052 218.469 60.1186L203.61 68.626C203.269 68.8529 203.156 68.9663 203.269 69.0797C203.723 69.9872 204.404 71.1215 205.311 72.5961C206.219 74.0707 206.786 75.205 207.126 75.7722C207.466 75.7722 208.147 75.6587 209.281 75.4319C210.416 75.205 211.436 75.0916 212.23 75.0916C213.138 74.9781 213.592 75.0916 213.818 75.4319C214.045 75.7722 214.159 76.1125 214.272 76.4528C214.386 76.7931 214.386 77.1333 214.272 77.3602C214.272 77.5871 214.159 77.8139 214.045 77.9274C213.932 78.0408 213.932 78.1542 213.818 78.1542C213.478 78.3811 212.004 78.608 209.508 78.9482C207.126 79.2885 205.651 79.2885 205.425 79.1751C204.063 76.4528 202.702 74.0707 201.454 71.8021C200.32 69.7603 198.959 67.6051 197.598 65.3365C197.598 64.9962 197.825 64.6559 198.165 64.2022C198.505 63.8619 198.959 63.5216 199.526 63.1813C199.753 63.0678 199.98 63.0678 200.32 63.4081C200.66 63.635 200.887 63.9753 201.114 64.429C201.341 64.7693 201.568 64.9962 201.795 64.9962C202.022 64.9962 202.248 64.9962 202.589 64.7693L216.541 56.8291C216.881 56.7157 216.995 56.4888 217.108 56.262C217.221 56.0351 217.108 55.8082 216.881 55.3545C216.314 54.2202 216.201 53.5396 216.654 53.3127C217.108 53.0859 217.675 52.859 218.129 52.7456C218.469 52.5187 218.923 52.5187 219.15 52.7456Z" fill="black"/>
<path d="M236.164 90.6317C236.731 95.0555 237.185 98.0047 237.412 99.4794C237.639 100.5 237.752 101.635 237.979 102.655C238.206 103.79 238.433 104.811 238.66 105.832C238.887 106.852 239 107.42 239 107.646C238.887 107.873 237.866 108.44 235.824 109.234C233.896 110.142 232.648 110.596 232.308 110.596C232.194 110.596 232.081 110.596 231.967 110.482C231.854 110.482 231.627 110.369 231.513 110.142C231.287 110.028 231.173 109.802 230.946 109.461C230.833 109.121 230.719 108.781 230.606 108.44C230.606 108.327 230.946 107.987 231.513 107.76C232.194 107.42 232.988 107.079 233.782 106.739C234.69 106.399 235.257 106.172 235.484 105.945C235.37 105.151 235.143 103.79 234.803 101.975C234.463 100.16 234.236 98.6853 234.009 97.551C234.009 97.4376 233.896 97.3242 233.782 97.2107C233.669 97.0973 233.555 97.0973 233.328 97.0973C233.215 97.0973 232.988 97.0973 232.875 97.2107L226.749 98.2316C227.09 98.7988 227.43 99.5928 227.77 100.5C228.111 101.408 228.337 102.202 228.451 102.996C228.564 103.676 228.451 104.243 228.224 104.697C227.997 105.151 227.43 105.378 226.749 105.605C226.182 105.718 225.615 105.605 225.048 105.264C224.594 104.924 224.254 104.47 224.14 103.903C225.048 102.996 225.275 101.748 225.048 100.273C224.934 99.8197 224.821 99.3659 224.708 98.6853L216.541 100.047C216.314 100.047 216.2 100.16 215.973 100.16C215.86 100.16 215.747 100.273 215.633 100.387C215.52 100.5 215.52 100.614 215.52 100.841C215.747 101.975 215.973 103.676 216.314 105.605C216.654 107.646 216.881 109.008 216.994 109.915C217.221 110.028 217.902 110.028 219.036 110.142C220.17 110.255 221.078 110.369 221.872 110.482C222.666 110.596 223.12 110.823 223.12 111.049C223.233 111.503 223.233 111.843 223.12 112.184C223.12 112.524 223.006 112.751 222.893 112.978C222.779 113.205 222.666 113.318 222.552 113.431C222.439 113.545 222.326 113.658 222.212 113.658C221.758 113.772 220.397 113.658 218.015 113.431C215.633 113.205 214.385 112.978 214.158 112.864C213.932 110.823 213.478 107.873 212.797 103.903C212.23 100.387 211.663 97.551 211.096 95.169C211.209 94.8287 211.55 94.6018 212.003 94.3749C212.457 94.1481 213.024 94.0347 213.591 93.9212C213.818 93.9212 214.045 94.0346 214.272 94.3749C214.499 94.7152 214.612 95.169 214.726 95.6227C214.839 96.0764 214.953 96.3033 215.179 96.4167C215.406 96.5301 215.633 96.5301 215.973 96.5301L231.74 93.8078C232.081 93.8078 232.308 93.6944 232.421 93.4675C232.534 93.3541 232.648 93.0138 232.534 92.56C232.308 91.3123 232.534 90.6317 233.102 90.6317C233.669 90.5183 234.122 90.5183 234.69 90.6317C235.484 90.178 235.937 90.4048 236.164 90.6317Z" fill="black"/>
<path d="M228.791 170.374C227.77 171.849 226.976 172.983 226.636 173.664C226.182 174.458 225.615 175.592 224.708 177.293C224.481 177.407 224.027 177.407 223.46 177.18C222.893 177.067 222.439 176.84 221.985 176.499C221.758 176.386 221.645 176.159 221.758 175.705C221.872 175.365 221.985 174.911 222.212 174.458C222.326 174.231 222.439 174.004 222.439 173.89C222.439 173.777 222.439 173.55 222.326 173.437C222.212 173.323 222.212 173.21 222.099 173.21C221.985 173.21 221.872 173.096 221.758 172.983L215.52 169.353L217.108 181.037C217.108 181.377 217.221 181.49 217.335 181.604C217.561 181.717 217.675 181.717 217.902 181.604C218.015 181.49 218.242 181.377 218.242 181.15C218.355 181.037 218.469 180.81 218.582 180.696C218.696 180.583 218.923 180.583 219.036 180.696C219.149 180.81 219.49 181.037 219.943 181.604C220.057 181.717 220.284 181.944 220.624 182.284C220.964 182.625 221.191 182.852 221.191 182.965C220.057 184.553 219.376 185.687 218.923 186.481C218.582 187.162 217.902 188.41 216.994 190.225C216.654 190.225 216.314 190.111 215.746 189.884C215.179 189.657 214.726 189.431 214.385 189.204C214.158 189.09 214.045 188.863 214.045 188.523C214.045 188.183 214.158 187.956 214.272 187.729C214.499 187.389 214.612 187.049 214.726 186.708C214.839 186.368 214.839 186.141 214.839 185.914C214.839 185.687 214.839 185.46 214.726 185.234L212.797 173.89C211.663 174.004 210.529 174.231 209.281 174.344C208.033 174.458 207.012 174.571 206.218 174.571C205.424 174.571 204.63 174.684 203.723 174.798C202.815 174.911 202.135 175.138 201.568 175.365C201 175.592 200.433 175.932 199.866 176.386C199.299 176.84 198.845 177.407 198.391 178.201C197.711 179.335 197.257 179.902 197.03 179.789L196.463 179.449C196.123 179.222 195.896 179.108 195.669 178.881C195.442 178.768 195.329 178.541 195.215 178.201C195.102 177.974 195.102 177.52 195.215 177.18C195.329 176.726 195.556 176.273 195.896 175.705C196.463 174.798 197.03 174.004 197.597 173.437C198.165 172.87 198.732 172.302 199.412 171.962C200.093 171.622 200.66 171.395 201.341 171.168C202.021 171.055 202.702 170.941 203.609 170.828C204.517 170.828 205.311 170.828 206.105 170.828C206.899 170.828 207.92 170.828 209.167 170.828C210.415 170.828 211.55 170.714 212.684 170.601L212.344 167.425L207.92 164.816C207.806 164.703 207.693 164.703 207.579 164.589C207.466 164.589 207.353 164.589 207.239 164.476C207.126 164.476 207.012 164.476 206.785 164.589C206.672 164.703 206.559 164.816 206.445 165.043C206.218 165.497 205.878 165.837 205.651 166.064C205.311 166.291 205.084 166.404 204.857 166.291C204.403 165.95 203.95 165.723 203.496 165.27C203.156 164.929 202.929 164.589 202.815 164.249C203.723 162.888 204.517 161.753 205.084 160.846C205.651 159.938 206.218 158.691 206.899 157.329C207.239 157.216 207.579 157.103 208.147 157.329C208.714 157.556 209.167 157.67 209.621 158.01C209.848 158.123 209.961 158.35 209.848 158.804C209.735 159.144 209.621 159.598 209.394 160.052C209.167 160.392 209.167 160.732 209.167 160.959C209.281 161.186 209.508 161.413 209.735 161.526L223.573 169.58C223.914 169.693 224.14 169.807 224.367 169.807C224.594 169.807 224.821 169.58 225.048 169.24C225.728 168.219 226.182 167.765 226.749 168.105C227.203 168.332 227.657 168.673 227.997 169.126C228.564 169.694 228.791 170.034 228.791 170.374Z" fill="black"/>
<path d="M198.732 209.735C197.257 210.756 196.123 211.55 195.556 212.117C194.875 212.684 193.854 213.591 192.493 214.953C192.153 214.953 191.813 214.839 191.359 214.499C190.905 214.159 190.565 213.818 190.111 213.365C189.884 213.138 189.998 212.911 190.111 212.571C190.338 212.23 190.565 211.89 191.019 211.55C191.246 211.436 191.359 211.209 191.359 211.096C191.472 210.983 191.472 210.869 191.472 210.642C191.472 210.529 191.359 210.415 191.359 210.302C191.359 210.188 191.246 210.075 191.132 209.962L180.923 197.711C180.81 197.598 180.696 197.484 180.696 197.371C180.583 197.371 180.47 197.257 180.356 197.257C180.243 197.257 180.129 197.257 179.902 197.257C179.789 197.371 179.562 197.371 179.335 197.598C178.995 197.938 178.541 198.165 178.201 198.278C177.861 198.392 177.52 198.392 177.407 198.165C177.067 197.711 176.726 197.257 176.499 196.804C176.273 196.35 176.159 195.896 176.273 195.669C177.52 194.762 178.655 193.968 179.562 193.174C180.356 192.493 181.377 191.586 182.511 190.451C182.852 190.451 183.305 190.565 183.759 190.792C184.213 191.132 184.667 191.472 185.007 191.926C185.12 192.153 185.12 192.38 185.007 192.72C184.893 193.06 184.553 193.401 184.099 193.741C183.759 193.968 183.646 194.308 183.646 194.535C183.646 194.762 183.759 194.989 183.986 195.216L194.195 207.58C194.422 207.806 194.649 208.033 194.875 208.033C195.102 208.147 195.329 208.033 195.669 207.693C196.577 206.899 197.257 206.672 197.598 207.126C197.938 207.58 198.278 208.033 198.505 208.487C198.845 209.054 198.959 209.394 198.732 209.735Z" fill="black"/>
<path d="M171.508 228.451C171.281 228.451 171.055 228.564 170.601 228.678C170.147 228.791 169.807 228.905 169.466 229.018C169.126 229.131 168.786 229.245 168.332 229.358C167.992 229.472 167.538 229.585 167.084 229.812C166.631 230.039 166.29 230.152 166.177 230.152H166.064H165.95C165.723 230.152 164.816 229.699 163.114 228.678C161.413 227.657 159.371 226.296 156.989 224.594C154.494 222.893 152.679 221.645 151.317 220.738C149.956 219.83 148.709 218.923 147.688 218.242L152.111 230.493C152.225 230.833 152.338 231.06 152.565 231.173C152.792 231.287 153.019 231.287 153.473 231.173C153.926 230.946 154.38 230.946 154.72 230.946C155.061 230.946 155.401 231.06 155.401 231.287C155.628 231.854 155.741 232.308 155.741 232.875C155.855 233.442 155.741 233.782 155.628 234.009C154.607 234.236 153.359 234.69 151.885 235.257C150.297 235.824 149.049 236.278 148.255 236.731C147.914 236.618 147.688 236.391 147.347 235.937C147.007 235.484 146.78 235.03 146.667 234.463C146.553 234.236 146.667 234.009 147.007 233.669C147.347 233.442 147.688 233.215 148.141 232.988C148.368 232.875 148.595 232.761 148.709 232.648C148.822 232.534 148.935 232.421 148.935 232.308C148.935 232.194 148.935 232.081 148.935 231.967C148.935 231.854 148.822 231.74 148.822 231.627L144.285 218.923C144.058 218.242 143.604 217.108 142.924 215.52C142.243 213.932 141.903 213.024 141.789 212.797C142.129 212.117 142.583 211.663 143.15 211.436C143.264 211.436 143.377 211.323 143.491 211.323C143.604 211.323 143.718 211.323 143.831 211.436C143.944 211.55 144.058 211.55 144.171 211.55C144.285 211.55 144.398 211.663 144.512 211.776C144.625 211.89 144.852 212.003 144.852 212.003C146.326 213.024 149.843 215.52 155.628 219.49C161.413 223.46 164.362 225.502 164.249 225.388L159.031 210.869C159.031 210.756 158.917 210.642 158.917 210.529C158.917 210.415 158.804 210.415 158.69 210.302C158.577 210.188 158.464 210.188 158.237 210.188C158.123 210.188 157.896 210.188 157.67 210.302C157.216 210.529 156.762 210.529 156.422 210.529C156.082 210.529 155.741 210.415 155.741 210.188C155.514 209.621 155.401 209.168 155.401 208.6C155.288 208.033 155.401 207.693 155.514 207.466C156.989 207.126 158.237 206.672 159.258 206.332C160.279 205.991 161.413 205.538 162.774 204.857C163.114 204.971 163.455 205.197 163.795 205.651C164.135 206.105 164.362 206.559 164.589 207.126C164.702 207.353 164.589 207.58 164.249 207.92C163.908 208.147 163.568 208.374 163.114 208.6C162.661 208.714 162.434 208.941 162.434 209.168C162.32 209.394 162.434 209.621 162.547 209.962L167.992 225.048C168.105 225.388 168.219 225.615 168.446 225.729C168.672 225.842 168.899 225.842 169.353 225.729C170.487 225.275 171.168 225.388 171.395 225.955C171.622 226.523 171.735 226.976 171.735 227.543C171.849 227.77 171.735 228.224 171.508 228.451Z" fill="black"/>
<path d="M108.554 222.439V215.52C109.008 215.179 109.348 214.953 109.915 214.953C110.028 214.953 110.142 214.953 110.255 214.953C110.369 214.953 110.482 215.066 110.709 215.066C110.822 215.179 110.936 215.179 111.049 215.179C111.163 215.179 111.276 215.293 111.503 215.406C111.616 215.52 111.73 215.52 111.843 215.633C112.864 215.179 113.999 214.953 115.36 214.612C116.721 214.385 117.969 214.159 119.103 214.159C120.804 214.159 122.279 214.385 123.64 214.953C125.001 215.406 126.249 216.087 127.157 216.881C128.177 217.675 128.971 218.696 129.652 219.717C130.333 220.851 130.786 221.985 131.127 223.12C131.467 224.367 131.58 225.615 131.58 226.863C131.58 228.564 131.24 230.266 130.673 231.854C130.106 233.442 129.312 234.803 128.291 235.937C127.27 237.072 126.022 237.979 124.548 238.66C123.073 239.34 121.485 239.681 119.784 239.681C118.422 239.681 117.061 239.454 115.7 238.887C114.339 238.433 113.204 237.639 112.41 236.731C112.41 238.433 112.184 239.227 111.73 239.227H109.915C109.348 239.227 109.121 238.66 109.121 237.525V233.442C109.121 232.761 109.121 232.308 109.234 232.081C109.348 231.74 109.348 231.627 109.461 231.514C109.575 231.4 109.688 231.4 109.915 231.4H111.276C111.39 231.4 111.503 231.514 111.73 231.74C111.957 231.967 112.184 232.308 112.524 232.648C112.864 232.988 113.204 233.442 113.658 233.896C114.112 234.349 114.679 234.803 115.133 235.143C115.7 235.484 116.381 235.824 117.061 236.164C117.855 236.391 118.649 236.505 119.443 236.505C120.464 236.505 121.372 236.278 122.279 235.937C123.186 235.597 123.867 235.03 124.548 234.463C125.115 233.896 125.682 233.102 126.136 232.308C126.589 231.514 126.93 230.606 127.157 229.699C127.383 228.791 127.497 227.77 127.497 226.863C127.497 225.955 127.383 225.048 127.157 224.141C126.93 223.233 126.589 222.439 126.022 221.645C125.569 220.851 124.888 220.17 124.207 219.603C123.527 219.036 122.619 218.582 121.712 218.129C120.691 217.788 119.67 217.562 118.422 217.562C116.267 217.562 114.225 217.788 112.184 218.242V221.645C112.184 221.985 112.184 222.326 112.297 222.552C112.297 222.779 112.41 223.12 112.637 223.347C112.751 223.573 113.091 223.8 113.431 223.914C113.772 224.027 114.225 224.141 114.793 224.141C115.019 224.141 115.133 224.254 115.246 224.481C115.36 224.708 115.36 225.048 115.36 225.502C115.36 226.296 115.133 226.863 114.793 227.543C113.318 227.43 111.957 227.317 110.596 227.317C110.028 227.317 109.461 227.317 108.894 227.317C108.327 227.317 107.873 227.43 107.533 227.43C107.193 227.43 106.966 227.43 106.852 227.43C106.739 227.317 106.739 227.09 106.625 226.749C106.512 226.409 106.512 226.182 106.512 225.842C106.512 225.388 106.625 225.048 106.739 224.821C106.852 224.594 107.079 224.367 107.306 224.254C107.533 224.141 107.76 224.027 107.873 223.914C108.1 223.8 108.213 223.573 108.44 223.233C108.44 223.347 108.554 222.893 108.554 222.439Z" fill="black"/>
<path d="M91.0855 213.478L85.0736 211.209C84.1662 210.869 83.2587 210.756 82.4647 210.756C81.5573 210.756 80.7632 210.983 79.9692 211.323C79.1752 211.663 78.4946 212.23 77.814 212.797C77.1334 213.365 76.5663 214.159 75.9991 214.839C75.432 215.633 75.0917 216.427 74.7514 217.335C74.2976 218.469 74.0708 219.603 74.0708 220.851C73.9573 221.985 74.0708 223.12 74.4111 224.254C74.7514 225.388 75.2051 226.296 75.9991 227.203C76.7931 228.111 77.7006 228.791 78.9483 229.132L84.5065 231.173L91.0855 213.478ZM88.9303 236.164C87.5691 235.484 85.7542 234.803 83.2587 233.896C82.4647 233.555 81.4438 233.215 80.1961 232.875C78.9483 232.535 78.1543 232.194 77.814 232.081C76.226 231.514 74.9782 230.72 73.8439 229.812C72.7096 228.905 71.8021 227.884 71.235 226.863C70.6678 225.729 70.2141 224.594 69.9872 223.347C69.7604 222.099 69.6469 220.851 69.7604 219.603C69.8738 218.356 70.2141 217.221 70.6678 215.974C71.1216 214.726 71.6887 213.592 72.3693 212.571C73.0499 211.55 73.8439 210.642 74.8648 209.848C75.7722 209.054 76.9066 208.487 78.0409 208.033C79.1752 207.58 80.4229 207.353 81.7841 207.353C83.1453 207.353 84.6199 207.693 86.0945 208.147C86.5482 208.26 87.3423 208.601 88.4766 209.168C89.6109 209.621 90.7452 210.075 91.6527 210.415C92.1064 210.529 92.6735 210.756 93.2407 210.983C93.9213 211.209 94.6019 211.436 95.5093 211.777C96.4168 212.117 97.0974 212.344 97.6645 212.457C97.8914 212.684 98.0048 213.138 97.8914 213.705C97.8914 214.272 97.6645 214.839 97.5511 215.293C97.4377 215.52 97.2108 215.633 96.8705 215.633C96.5302 215.633 96.0765 215.52 95.6228 215.406C95.169 215.293 94.9422 215.293 94.7153 215.406C94.4884 215.52 94.375 215.747 94.2616 216.087L88.7034 231.173C88.59 231.514 88.59 231.741 88.59 231.967C88.7034 232.194 88.9303 232.421 89.2706 232.535C90.4049 232.988 90.9721 233.442 90.7452 234.009C90.5183 234.463 90.2915 235.03 89.9512 235.484C89.6109 235.938 89.2706 236.164 88.9303 236.164Z" fill="black"/>
<path d="M54.6744 189.431C56.0355 189.998 57.3967 190.792 58.531 191.813C59.7788 192.833 60.7997 193.968 61.4802 195.329C62.2743 196.577 62.728 197.824 62.9549 199.072C63.1817 200.32 63.1817 201.568 62.9549 202.929C62.728 204.177 62.3877 205.424 61.8205 206.559C61.2534 207.693 60.5728 208.827 59.7788 209.735C58.9848 210.756 57.9639 211.55 56.943 212.344C55.9221 213.024 54.7878 213.591 53.54 214.045C52.2923 214.385 51.0446 214.612 49.7968 214.612C48.5491 214.612 47.1879 214.272 45.8267 213.818C44.4655 213.251 43.1044 212.457 41.8566 211.436C40.6089 210.415 39.588 209.281 38.9074 207.92C38.1134 206.672 37.6596 205.424 37.4328 204.177C37.2059 202.929 37.2059 201.681 37.3194 200.433C37.4328 199.186 37.8865 197.938 38.3402 196.804C38.9074 195.669 39.588 194.648 40.382 193.627C41.176 192.607 42.1969 191.813 43.2178 191.019C44.2387 190.338 45.373 189.771 46.6207 189.317C47.8685 188.977 49.1162 188.75 50.364 188.75C51.952 188.636 53.3132 188.863 54.6744 189.431ZM58.531 196.463C58.0773 195.556 57.3967 194.762 56.6027 194.081C55.8087 193.401 54.9012 192.833 53.9938 192.607C53.0863 192.266 52.1789 192.153 51.2714 192.266C50.364 192.38 49.4565 192.493 48.5491 192.833C47.6416 193.174 46.8476 193.627 46.0536 194.195C45.2596 194.762 44.579 195.442 43.8984 196.236C43.1044 197.144 42.4238 198.278 41.97 199.299C41.5163 200.433 41.176 201.568 41.176 202.702C41.176 203.836 41.2895 204.971 41.7432 206.105C42.1969 207.239 42.9909 208.26 44.0118 209.054C45.0327 209.962 46.167 210.529 47.3013 210.756C48.4356 210.982 49.6834 210.982 50.7043 210.756C51.8386 210.529 52.8595 210.075 53.8803 209.394C54.9012 208.714 55.8087 207.92 56.6027 207.012C57.2833 206.218 57.737 205.424 58.1907 204.63C58.6445 203.723 58.9848 202.929 59.0982 201.908C59.3251 201.001 59.3251 200.093 59.2116 199.186C59.3251 198.165 58.9848 197.371 58.531 196.463Z" fill="black"/>
<path d="M22.9132 192.153C22.7997 192.039 22.6863 191.699 22.5729 191.359C22.346 191.019 22.2326 190.565 22.1192 190.338C22.0057 189.998 21.7789 189.657 21.552 189.317C21.3251 188.977 21.0983 188.523 20.758 187.956C20.4177 187.389 20.1908 187.049 20.0774 186.935V186.822V186.708C20.0774 186.708 20.1908 186.368 20.5311 185.914C20.8714 185.46 21.3251 184.78 21.8923 183.872C22.5729 182.965 23.14 182.058 23.8206 181.264C24.5012 180.356 25.2952 179.335 26.2027 178.087C27.1101 176.84 27.9042 175.819 28.4713 175.025C29.0385 174.231 29.8325 173.21 30.7399 171.962C31.6474 170.714 32.2146 170.034 32.4414 169.694C29.0385 170.147 24.7281 170.601 19.5102 171.168C14.2924 171.735 11.6835 171.962 11.4566 171.735L11.3432 171.622C11.3432 171.508 11.1163 171.168 10.8894 170.714C10.6626 170.147 10.4357 169.807 10.2089 169.467C9.41483 168.105 8.84767 167.198 8.28052 166.517C8.39395 165.95 9.07454 165.27 10.3223 164.476C10.5491 164.362 10.776 164.362 11.1163 164.703C11.4566 164.929 11.6835 165.27 11.9103 165.723C12.1372 166.064 12.364 166.291 12.5909 166.291C12.8178 166.291 13.0446 166.291 13.3849 166.064L27.337 158.123C27.6773 158.01 27.7907 157.783 27.9042 157.556C28.0176 157.329 27.9042 157.103 27.6773 156.649C27.4504 156.195 27.2236 155.741 27.2236 155.401C27.1101 155.061 27.2236 154.721 27.4504 154.607C27.9042 154.38 28.4713 154.153 28.925 154.04C29.4922 153.927 29.8325 153.927 30.1728 154.153C30.8534 155.515 31.4205 156.649 31.8743 157.556C32.4414 158.577 33.2354 159.825 34.1429 161.073C34.1429 161.413 33.916 161.753 33.4623 162.094C33.0086 162.434 32.5548 162.774 32.1011 163.001C31.8743 163.114 31.6474 163.114 31.3071 162.774C30.9668 162.547 30.7399 162.207 30.5131 161.753C30.3996 161.526 30.2862 161.413 30.1728 161.3C30.0594 161.186 29.9459 161.186 29.7191 161.186C29.6056 161.186 29.4922 161.186 29.3788 161.186C29.2653 161.186 29.1519 161.3 29.0385 161.3L16.3341 168.559C16.3341 168.559 17.0147 168.446 18.2625 168.332C19.6237 168.219 21.2117 167.992 23.0266 167.765C24.8415 167.538 26.7698 167.311 28.5847 167.085C30.3996 166.858 31.9877 166.744 33.3489 166.517L35.2772 166.291C35.2772 166.291 35.3906 166.291 35.6175 166.404C35.8444 166.517 36.0712 166.631 36.2981 166.858C36.5249 167.085 36.7518 167.198 36.8652 167.425C37.2055 167.879 36.9787 168.559 36.4115 169.353C36.1847 169.58 35.7309 170.374 34.8235 171.508C33.916 172.643 33.0086 174.004 31.9877 175.365C30.9668 176.726 29.9459 178.201 28.8116 179.562C27.7907 180.923 26.8833 182.171 26.2027 183.078C25.5221 183.986 25.1818 184.44 25.1818 184.44L37.8861 177.18C37.9996 177.067 38.113 177.067 38.2264 176.953C38.3398 176.84 38.3398 176.84 38.4533 176.726C38.5667 176.613 38.5667 176.499 38.5667 176.273C38.5667 176.159 38.4533 175.932 38.3398 175.705C38.113 175.252 37.8861 174.798 37.8861 174.458C37.7727 174.117 37.8861 173.777 38.113 173.664C38.5667 173.437 39.1339 173.21 39.5876 172.983C40.1547 172.87 40.495 172.756 40.7219 172.87C41.2891 174.117 41.8562 175.252 42.4234 176.159C42.9905 177.067 43.6711 178.201 44.4651 179.335C44.4651 179.675 44.2383 180.016 43.898 180.469C43.5577 180.81 43.104 181.15 42.5368 181.49C42.3099 181.604 42.0831 181.604 41.7428 181.264C41.4025 181.037 41.1756 180.696 40.9488 180.243C40.7219 179.902 40.495 179.675 40.2682 179.675C40.0413 179.675 39.8145 179.675 39.4742 179.902L25.5221 187.843C25.1818 187.956 25.0684 188.183 24.9549 188.41C24.8415 188.637 24.9549 188.863 25.1818 189.317C25.749 190.338 25.8624 191.132 25.4087 191.359C24.9549 191.586 24.3878 191.813 23.9341 191.926C23.5938 192.266 23.2535 192.266 22.9132 192.153Z" fill="black"/>
</svg>
