<svg width="39" height="39" viewBox="0 0 39 39" fill="none" xmlns="http://www.w3.org/2000/svg">
<path d="M21.4275 0.75C23.5369 0.755625 24.6075 0.766875 25.5319 0.793125L25.8956 0.80625C26.3156 0.82125 26.73 0.84 27.2306 0.8625C29.2256 0.95625 30.5869 1.27125 31.7813 1.73438C33.0188 2.21063 34.0613 2.85562 35.1038 3.89625C36.0572 4.83355 36.7949 5.96735 37.2656 7.21875C37.7288 8.41312 38.0438 9.77437 38.1375 11.7712C38.16 12.27 38.1788 12.6844 38.1938 13.1063L38.205 13.47C38.2331 14.3925 38.2444 15.4631 38.2481 17.5725L38.25 18.9713V21.4275C38.2546 22.7951 38.2402 24.1628 38.2069 25.53L38.1956 25.8937C38.1806 26.3156 38.1619 26.73 38.1394 27.2288C38.0456 29.2256 37.7269 30.585 37.2656 31.7812C36.7963 33.0333 36.0584 34.1674 35.1038 35.1038C34.1662 36.0569 33.0325 36.7945 31.7813 37.2656C30.5869 37.7288 29.2256 38.0438 27.2306 38.1375C26.7857 38.1585 26.3407 38.1772 25.8956 38.1937L25.5319 38.205C24.6075 38.2313 23.5369 38.2444 21.4275 38.2481L20.0288 38.25H17.5744C16.2061 38.2547 14.8379 38.2403 13.47 38.2069L13.1063 38.1956C12.6612 38.1788 12.2161 38.1594 11.7713 38.1375C9.77626 38.0438 8.41501 37.7288 7.21876 37.2656C5.96752 36.7957 4.83417 36.0578 3.89814 35.1038C2.94385 34.1668 2.20543 33.0329 1.73439 31.7812C1.27126 30.5869 0.956264 29.2256 0.862514 27.2288C0.841624 26.7838 0.822874 26.3388 0.806264 25.8937L0.796889 25.53C0.762337 24.1628 0.74671 22.7952 0.750014 21.4275V17.5725C0.744781 16.2049 0.758532 14.8372 0.791264 13.47L0.804389 13.1063C0.819389 12.6844 0.838139 12.27 0.860639 11.7712C0.954389 9.77437 1.26939 8.415 1.73251 7.21875C2.20335 5.96607 2.94324 4.83192 3.90001 3.89625C4.83581 2.94276 5.96841 2.20498 7.21876 1.73438C8.41501 1.27125 9.77439 0.95625 11.7713 0.8625C12.27 0.84 12.6863 0.82125 13.1063 0.80625L13.47 0.795C14.8372 0.761686 16.2049 0.74731 17.5725 0.751875L21.4275 0.75ZM19.5 10.125C17.0136 10.125 14.629 11.1127 12.8709 12.8709C11.1127 14.629 10.125 17.0136 10.125 19.5C10.125 21.9864 11.1127 24.371 12.8709 26.1291C14.629 27.8873 17.0136 28.875 19.5 28.875C21.9864 28.875 24.371 27.8873 26.1291 26.1291C27.8873 24.371 28.875 21.9864 28.875 19.5C28.875 17.0136 27.8873 14.629 26.1291 12.8709C24.371 11.1127 21.9864 10.125 19.5 10.125ZM19.5 13.875C20.2387 13.8749 20.9702 14.0203 21.6527 14.3028C22.3352 14.5854 22.9553 14.9996 23.4778 15.5219C24.0002 16.0441 24.4146 16.6641 24.6974 17.3465C24.9802 18.0289 25.1258 18.7604 25.1259 19.4991C25.1261 20.2377 24.9807 20.9692 24.6981 21.6517C24.4156 22.3342 24.0013 22.9544 23.4791 23.4768C22.9568 23.9992 22.3368 24.4137 21.6544 24.6965C20.972 24.9793 20.2406 25.1249 19.5019 25.125C18.01 25.125 16.5793 24.5324 15.5244 23.4775C14.4695 22.4226 13.8769 20.9918 13.8769 19.5C13.8769 18.0082 14.4695 16.5774 15.5244 15.5225C16.5793 14.4676 18.01 13.875 19.5019 13.875M29.3456 7.3125C28.724 7.3125 28.1279 7.55943 27.6884 7.99897C27.2488 8.43851 27.0019 9.03465 27.0019 9.65625C27.0019 10.2779 27.2488 10.874 27.6884 11.3135C28.1279 11.7531 28.724 12 29.3456 12C29.9672 12 30.5634 11.7531 31.0029 11.3135C31.4425 10.874 31.6894 10.2779 31.6894 9.65625C31.6894 9.03465 31.4425 8.43851 31.0029 7.99897C30.5634 7.55943 29.9672 7.3125 29.3456 7.3125Z" fill="black"/>
</svg>
