<svg width="50" height="50" viewBox="0 0 50 50" fill="none" xmlns="http://www.w3.org/2000/svg">
<rect x="8" y="6" width="34" height="36" rx="17" fill="#5E6CE5"/>
<path fill-rule="evenodd" clip-rule="evenodd" d="M25 4.16666C29.9728 4.16666 34.7419 6.1421 38.2582 9.6584C41.7746 13.1747 43.75 17.9438 43.75 22.9167C43.75 29.3208 40.2583 34.5625 36.5792 38.3229C34.7407 40.181 32.735 41.8659 30.5875 43.3562L29.7 43.9604L29.2833 44.2375L28.4979 44.7375L27.7979 45.1646L26.9312 45.6687C26.3427 46.0037 25.6772 46.1799 25 46.1799C24.3228 46.1799 23.6573 46.0037 23.0687 45.6687L22.2021 45.1646L21.1187 44.4979L20.7187 44.2375L19.8646 43.6687C17.5479 42.1007 15.3897 40.3102 13.4208 38.3229C9.74167 34.5604 6.25 29.3208 6.25 22.9167C6.25 17.9438 8.22544 13.1747 11.7417 9.6584C15.2581 6.1421 20.0272 4.16666 25 4.16666ZM25 8.33332C21.1323 8.33332 17.4229 9.86978 14.688 12.6047C11.9531 15.3396 10.4167 19.0489 10.4167 22.9167C10.4167 27.7542 13.0667 32 16.3979 35.4083C17.8305 36.8581 19.3786 38.1889 21.0271 39.3875L21.9812 40.0667C22.2896 40.2812 22.5854 40.4812 22.8708 40.6667L23.6833 41.1875L24.3979 41.6229L25 41.975L25.9479 41.4146L26.7125 40.9354C27.1187 40.6771 27.5562 40.3875 28.0187 40.0667L28.9729 39.3875C30.6214 38.1889 32.1695 36.8581 33.6021 35.4083C36.9333 32.0021 39.5833 27.7542 39.5833 22.9167C39.5833 19.0489 38.0469 15.3396 35.312 12.6047C32.5771 9.86978 28.8677 8.33332 25 8.33332ZM25 14.5833C27.2101 14.5833 29.3298 15.4613 30.8926 17.0241C32.4554 18.5869 33.3333 20.7065 33.3333 22.9167C33.3333 25.1268 32.4554 27.2464 30.8926 28.8092C29.3298 30.372 27.2101 31.25 25 31.25C22.7899 31.25 20.6702 30.372 19.1074 28.8092C17.5446 27.2464 16.6667 25.1268 16.6667 22.9167C16.6667 20.7065 17.5446 18.5869 19.1074 17.0241C20.6702 15.4613 22.7899 14.5833 25 14.5833ZM25 18.75C23.8949 18.75 22.8351 19.189 22.0537 19.9704C21.2723 20.7518 20.8333 21.8116 20.8333 22.9167C20.8333 24.0217 21.2723 25.0815 22.0537 25.8629C22.8351 26.6443 23.8949 27.0833 25 27.0833C26.1051 27.0833 27.1649 26.6443 27.9463 25.8629C28.7277 25.0815 29.1667 24.0217 29.1667 22.9167C29.1667 21.8116 28.7277 20.7518 27.9463 19.9704C27.1649 19.189 26.1051 18.75 25 18.75Z" fill="black"/>
</svg>
