<svg width="50" height="50" viewBox="0 0 50 50" fill="none" xmlns="http://www.w3.org/2000/svg">
<path d="M47.9853 37.5219C47.5969 40.4245 46.1675 43.0873 43.9629 45.015C41.7584 46.9428 38.9287 48.0042 36.0002 48.002C26.9828 48.002 18.3347 44.4198 11.9584 38.0435C5.5821 31.6672 1.99994 23.0191 1.99994 14.0017C1.9977 11.0731 3.05914 8.24347 4.98687 6.03891C6.91459 3.83435 9.57738 2.40495 12.48 2.01654C12.9091 1.96556 13.3432 2.05492 13.7172 2.27125C14.0913 2.48757 14.3852 2.81922 14.555 3.21655L19.8376 15.0167C19.9674 15.3197 20.0202 15.6502 19.9914 15.9786C19.9626 16.3071 19.8531 16.6233 19.6726 16.8992L14.33 23.2517C14.1405 23.5377 14.0285 23.8679 14.0048 24.2102C13.9811 24.5524 14.0467 24.8949 14.195 25.2043C16.2625 29.4368 20.6376 33.7593 24.8826 35.8069C25.1936 35.9546 25.5377 36.0186 25.8809 35.9928C26.2242 35.9669 26.5548 35.852 26.8401 35.6594L33.0902 30.3343C33.3671 30.15 33.6857 30.0377 34.0171 30.0076C34.3484 29.9775 34.682 30.0305 34.9877 30.1618L46.7778 35.4444C47.1769 35.6131 47.5105 35.9069 47.7283 36.2816C47.9461 36.6562 48.0363 37.0915 47.9853 37.5219Z" fill="#5E6CE5"/>
<path d="M47.5928 33.6168L35.8152 28.3393L35.7827 28.3243C35.1713 28.0628 34.5043 27.9578 33.8421 28.0189C33.1799 28.0801 32.5434 28.3053 31.9902 28.6743C31.9251 28.7173 31.8624 28.7641 31.8027 28.8143L25.7176 34.0018C21.8626 32.1293 17.8826 28.1793 16.0101 24.3743L21.2051 18.1967C21.2551 18.1342 21.3026 18.0717 21.3476 18.0042C21.7087 17.4524 21.9278 16.82 21.9853 16.1631C22.0429 15.5062 21.9372 14.8453 21.6776 14.2392V14.2092L16.3851 2.41154C16.0419 1.61969 15.4519 0.960063 14.703 0.531117C13.9542 0.102172 13.0867 -0.0730825 12.23 0.0315162C8.84245 0.477287 5.73295 2.14096 3.48232 4.7118C1.23169 7.28264 -0.00616341 10.5848 -3.84134e-05 14.0017C-3.84134e-05 33.8518 16.1501 50.002 36.0002 50.002C39.417 50.0081 42.7192 48.7703 45.29 46.5196C47.8609 44.269 49.5246 41.1595 49.9703 37.7719C50.0751 36.9155 49.9002 36.0483 49.4717 35.2994C49.0433 34.5506 48.3842 33.9604 47.5928 33.6168ZM36.0002 46.002C27.5161 45.9927 19.3821 42.6183 13.3829 36.6191C7.38367 30.6198 4.00925 22.4858 3.99999 14.0017C3.99058 11.5604 4.87012 9.19909 6.47435 7.35885C8.07857 5.51861 10.2978 4.32522 12.7176 4.00155C12.7166 4.01153 12.7166 4.02158 12.7176 4.03156L17.9676 15.7817L12.8001 21.9667C12.7476 22.0271 12.7 22.0914 12.6576 22.1592C12.2813 22.7365 12.0606 23.4012 12.0168 24.0889C11.973 24.7766 12.1076 25.4639 12.4075 26.0843C14.6726 30.7168 19.3401 35.3494 24.0226 37.6119C24.6475 37.909 25.3389 38.0389 26.029 37.989C26.7192 37.939 27.3845 37.7109 27.9602 37.3269C28.0243 37.2836 28.0861 37.2369 28.1452 37.1869L34.2227 32.0018L45.9728 37.2644H46.0003C45.6806 39.6876 44.489 41.9113 42.6484 43.5195C40.8078 45.1277 38.4444 46.0102 36.0002 46.002Z" fill="black"/>
</svg>
