<svg width="135" height="91" viewBox="0 0 135 91" fill="none" xmlns="http://www.w3.org/2000/svg">
<g clip-path="url(#clip0_39_8)">
<path d="M76.1506 85.8416L78.546 87.8216L88.2391 76.0419L83.2725 71.9293L75.7055 81.1298C74.5341 82.5574 74.7332 84.6666 76.1564 85.8416H76.1506Z" fill="#292725"/>
<path d="M84.8087 60.8272L91.0879 62.2733L87.6805 77.1613L81.4014 75.7153L84.8087 60.8272Z" fill="#292725"/>
<path d="M28.6934 68.733L33.4729 72.2691C33.5849 72.3519 33.6087 72.5101 33.5261 72.6224L24.7865 84.5092C24.7039 84.6215 24.5463 84.6454 24.4343 84.5626L19.6548 81.0265C19.5429 80.9437 19.5191 80.7855 19.6016 80.6732L28.3412 68.7864C28.4238 68.6741 28.5815 68.6502 28.6934 68.733Z" fill="#292725"/>
<path d="M25.9809 58.0052H33.1731C33.4512 58.0052 33.6768 58.2315 33.6768 58.5105V72.1878C33.6768 72.4669 33.4512 72.6931 33.1731 72.6931H25.9809C25.7027 72.6931 25.4772 72.4669 25.4772 72.1878V58.5105C25.4772 58.2315 25.7027 58.0052 25.9809 58.0052Z" fill="#292725"/>
<path d="M21.741 85.533C18.5789 83.0054 16.7509 80.0306 17.658 78.8887C18.5651 77.7468 21.8639 78.8701 25.026 81.3978C28.1881 83.9254 30.0162 86.9002 29.109 88.0421C28.2019 89.184 24.9032 88.0607 21.741 85.533Z" fill="#292725"/>
<path d="M78.4831 88.5304C75.6853 86.2939 74.1525 83.5552 75.0597 82.4133C75.9668 81.2713 78.9703 82.1586 81.7681 84.3951C84.5659 86.6316 86.0987 89.3703 85.1916 90.5122C84.2844 91.6541 81.281 90.7668 78.4831 88.5304Z" fill="#292725"/>
<path d="M102.987 8.45436L100.808 21.644L112.398 17.9192L102.987 8.44849V8.45436Z" fill="#4C4945"/>
<path d="M110.987 59.1802C102.9 59.1802 96.3449 49.1847 96.3449 36.8547C96.3449 24.5247 102.9 14.5292 110.987 14.5292C119.074 14.5292 125.629 24.5247 125.629 36.8547C125.629 49.1847 119.074 59.1802 110.987 59.1802Z" fill="#4C4945"/>
<path d="M123.872 53.8926C121.608 53.8926 119.772 52.4459 119.772 50.6613C119.772 48.8766 121.608 47.4299 123.872 47.4299C126.136 47.4299 127.972 48.8766 127.972 50.6613C127.972 52.4459 126.136 53.8926 123.872 53.8926Z" fill="#4C4945"/>
<path d="M127.972 50.3676C124.09 50.3676 120.944 47.7372 120.944 44.4924C120.944 41.2477 124.09 38.6173 127.972 38.6173C131.853 38.6173 135 41.2477 135 44.4924C135 47.7372 131.853 50.3676 127.972 50.3676Z" fill="#4C4945"/>
<path d="M134.034 41.4433L131.779 39.4281L131.017 41.6137L134.034 41.4433Z" fill="#F792F2"/>
<path d="M57.3969 66.2304C32.652 66.2304 12.5922 60.8381 12.5922 54.1864C12.5922 47.5346 32.652 42.1423 57.3969 42.1423C82.1419 42.1423 102.202 47.5346 102.202 54.1864C102.202 60.8381 82.1419 66.2304 57.3969 66.2304Z" fill="#4C4945"/>
<path d="M115.38 32.1546C115.38 35.5211 116.159 38.5527 117.4 40.7323C118.648 42.9238 120.323 44.1987 122.115 44.1987C123.907 44.1987 125.582 42.9238 126.83 40.7323C128.071 38.5527 128.85 35.5211 128.85 32.1546C128.85 28.7882 128.071 25.7566 126.83 23.5769C125.582 21.3855 123.907 20.1106 122.115 20.1106C120.323 20.1106 118.648 21.3855 117.4 23.5769C116.159 25.7566 115.38 28.7882 115.38 32.1546Z" fill="white" stroke="#020202" stroke-width="0.5"/>
<path d="M10.5423 40.9674C11.7136 45.6675 17.2776 48.6051 19.9132 49.4863C18.449 51.149 15.052 54.5389 13.1778 54.774C10.8351 55.0677 2.92839 45.08 1.75702 40.9674C0.585657 36.8548 4.68544 29.2171 6.14965 25.9858C7.61386 22.7545 6.73533 19.5231 6.14965 13.3542C5.6811 8.41912 1.85659 4.24777 -2.67029e-05 2.77899C0.486092 1.41008 2.10843 -0.9811 4.68544 0.428933C6.73533 0.72269 12.5922 9.82915 13.1778 13.3542C13.7635 16.8793 12.5922 25.1045 10.5423 29.2171C8.49238 33.3297 9.07807 35.0922 10.5423 40.9674Z" fill="#4C4945"/>
<path d="M92.8308 60.3552H86.3883V74.4262C86.3883 75.0901 86.9271 75.6306 87.5889 75.6306H92.8308V60.3552Z" fill="#4C4945"/>
<path d="M89.6857 72.6167L87.1848 73.874C86.5933 74.1736 86.3531 74.8963 86.6518 75.4897L91.841 85.8828C92.4442 87.0931 93.9143 87.5807 95.1208 86.9756L96.5089 86.2764C97.7154 85.6713 98.2015 84.1966 97.5983 82.9863L92.9655 73.7095C92.3622 72.4992 90.8922 72.0116 89.6857 72.6167Z" fill="#4C4945"/>
<path d="M20.8814 68.5853L26.0663 72.4213L17.0277 84.7147L11.8428 80.8788L20.8814 68.5853Z" fill="#4C4945"/>
<path d="M18.2323 58.0052H25.6939C25.8977 58.0052 26.0629 58.171 26.0629 58.3754V72.323C26.0629 72.5274 25.8977 72.6931 25.6939 72.6931H18.2323C18.0286 72.6931 17.8634 72.5274 17.8634 72.323V58.3754C17.8634 58.171 18.0286 58.0052 18.2323 58.0052Z" fill="#4C4945"/>
<path d="M99.5017 89.6017C95.4584 89.6017 92.1807 88.418 92.1807 86.9579C92.1807 85.4978 95.4584 84.3141 99.5017 84.3141C103.545 84.3141 106.823 85.4978 106.823 86.9579C106.823 88.418 103.545 89.6017 99.5017 89.6017Z" fill="#4C4945"/>
<path d="M15.9954 87.4021C12.8333 84.8744 11.0053 81.8996 11.9124 80.7577C12.8195 79.6158 16.1183 80.7391 19.2804 83.2668C22.4425 85.7944 24.2706 88.7692 23.3634 89.9111C22.4563 91.0531 19.1575 89.9297 15.9954 87.4021Z" fill="#4C4945"/>
<path d="M123.872 38.1884C122.902 38.1884 122.115 37.5308 122.115 36.7196C122.115 35.9085 122.902 35.2509 123.872 35.2509C124.842 35.2509 125.629 35.9085 125.629 36.7196C125.629 37.5308 124.842 38.1884 123.872 38.1884Z" fill="#0C0B0B"/>
<path d="M129.629 43.7168C129.629 43.7168 128.106 43.3291 127.21 43.4407C126.314 43.5523 125.213 43.57 124.212 43.9107" stroke="#050403" stroke-width="0.5"/>
<path d="M129.389 45.0976C129.389 45.0976 127.632 44.1399 126.601 44.4043C125.571 44.6687 124.294 44.7216 123.146 45.5735" stroke="#050403" stroke-width="0.5"/>
<path d="M129.629 45.9906C129.629 45.9906 128.118 45.1504 127.234 45.3796C126.349 45.6087 125.254 45.6616 124.264 46.4077" stroke="#050403" stroke-width="0.5"/>
<path d="M86.2067 46.537L83.1553 52.9996L84.7542 55.855L84.6078 61.5538L83.4482 56.4248L81.2636 52.9996L84.6078 47.4888L86.2067 46.537Z" fill="#4C4945"/>
<path d="M92.5204 47.5181L89.4631 50.579L91.062 51.9303L90.9156 54.6329L89.756 52.2006L87.5714 50.579L90.9156 47.9705L92.5204 47.5181Z" fill="#4C4945"/>
<path d="M78.792 44.845L74.3701 48.9987L76.6835 50.8376L76.4727 54.5037L74.7918 51.2019L71.6349 48.9987L76.4727 45.456L78.792 44.845Z" fill="#4C4945"/>
<path d="M70.7213 44.845L68.7124 52.5943L69.7666 56.0195L69.667 62.8581L68.9056 56.701L67.4649 52.5943L69.667 45.9847L70.7213 44.845Z" fill="#4C4945"/>
<path d="M63.9507 44.0576L61.2215 49.2865L62.6505 51.5895L62.5217 56.2015L61.4792 52.0537L59.5288 49.2865L62.5217 44.8273L63.9507 44.0576Z" fill="#4C4945"/>
<path d="M56.1436 45.2327L51.4816 50.9081L53.9239 53.4109L53.7013 58.4224L51.9267 53.9161L48.5942 50.9081L53.7013 46.0669L56.1436 45.2327Z" fill="#4C4945"/>
<path d="M45.8649 44.9741L43.1297 51.096L44.5588 53.7986L44.4299 59.2037L43.3874 54.3391L41.4371 51.096L44.4299 45.873L45.8649 44.9741Z" fill="#4C4945"/>
<path d="M39.3521 45.1034L36.6228 51.7364L38.0518 54.6564L37.923 60.508L36.8805 55.2439L34.9301 51.7364L37.923 46.0787L39.3521 45.1034Z" fill="#4C4945"/>
<path d="M28.8508 46.4841L28.1948 52.6236L30.3794 54.4156L31.9373 59.0452L29.4482 55.2792L26.6076 53.2112L27.7848 47.7414L28.8508 46.4841Z" fill="#4C4945"/>
<path d="M57.0573 66.2363C41.4243 66.2363 28.7512 64.7791 28.7512 62.9815C28.7512 61.1839 41.4243 59.7267 57.0573 59.7267C72.6903 59.7267 85.3633 61.1839 85.3633 62.9815C85.3633 64.7791 72.6903 66.2363 57.0573 66.2363Z" fill="#8F8881"/>
</g>
<defs>
<clipPath id="clip0_39_8">
<rect width="135" height="91" fill="white" transform="matrix(-1 0 0 1 135 0)"/>
</clipPath>
</defs>
</svg>
