<svg width="206" height="139" viewBox="0 0 206 139" fill="none" xmlns="http://www.w3.org/2000/svg">
<g clip-path="url(#clip0_22_121)">
<path d="M116.2 131.121L119.855 134.145L134.646 116.152L127.068 109.87L115.521 123.923C113.733 126.104 114.037 129.326 116.209 131.121H116.2Z" fill="#C98E47"/>
<path d="M129.412 92.912L138.993 95.1208L133.794 117.862L124.212 115.653L129.412 92.912Z" fill="#C98E47"/>
<path d="M43.784 104.988L51.0772 110.389C51.248 110.516 51.2843 110.757 51.1584 110.929L37.8224 129.086C37.6964 129.257 37.4558 129.294 37.285 129.167L29.9918 123.766C29.821 123.639 29.7847 123.398 29.9106 123.226L43.2466 105.069C43.3726 104.898 43.6132 104.861 43.784 104.988Z" fill="#C98E47"/>
<path d="M39.645 88.6014H50.6197C51.0442 88.6014 51.3883 88.947 51.3883 89.3732V110.265C51.3883 110.691 51.0442 111.037 50.6197 111.037H39.645C39.2205 111.037 38.8764 110.691 38.8764 110.265V89.3732C38.8764 88.947 39.2205 88.6014 39.645 88.6014Z" fill="#C98E47"/>
<path d="M33.1752 130.649C28.3501 126.789 25.5606 122.245 26.9448 120.5C28.329 118.756 33.3627 120.472 38.1878 124.333C43.013 128.194 45.8024 132.738 44.4183 134.482C43.0341 136.226 38.0004 134.51 33.1752 130.649Z" fill="#C98E47"/>
<path d="M119.759 135.228C115.49 131.812 113.151 127.628 114.535 125.884C115.92 124.14 120.503 125.495 124.772 128.911C129.041 132.327 131.38 136.511 129.996 138.255C128.612 139.999 124.029 138.644 119.759 135.228Z" fill="#C98E47"/>
<path d="M157.15 12.9138L153.825 33.0606L171.512 27.371L157.15 12.9048V12.9138Z" fill="#F2AD51"/>
<path d="M169.358 90.3962C157.018 90.3962 147.015 75.1284 147.015 56.2946C147.015 37.4608 157.018 22.193 169.358 22.193C181.697 22.193 191.701 37.4608 191.701 56.2946C191.701 75.1284 181.697 90.3962 169.358 90.3962Z" fill="#F2AD51"/>
<path d="M189.02 82.3195C185.564 82.3195 182.764 80.1097 182.764 77.3838C182.764 74.6578 185.564 72.448 189.02 72.448C192.475 72.448 195.275 74.6578 195.275 77.3838C195.275 80.1097 192.475 82.3195 189.02 82.3195Z" fill="#F2AD51"/>
<path d="M195.275 76.935C189.353 76.935 184.551 72.9172 184.551 67.9609C184.551 63.0047 189.353 58.9868 195.275 58.9868C201.198 58.9868 206 63.0047 206 67.9609C206 72.9172 201.198 76.935 195.275 76.935Z" fill="#EFCD81"/>
<path d="M204.525 63.3033L201.085 60.2252L199.923 63.5636L204.525 63.3033Z" fill="#F792F2"/>
<path d="M87.5835 101.165C49.8245 101.165 19.2147 92.9286 19.2147 82.7683C19.2147 72.6079 49.8245 64.3713 87.5835 64.3713C125.343 64.3713 155.952 72.6079 155.952 82.7683C155.952 92.9286 125.343 101.165 87.5835 101.165Z" fill="#F2AD51"/>
<path d="M176.061 49.1153C176.061 54.2575 177.249 58.8881 179.144 62.2175C181.048 65.5649 183.604 67.5122 186.338 67.5122C189.073 67.5122 191.629 65.5649 193.533 62.2175C195.427 58.8881 196.616 54.2575 196.616 49.1153C196.616 43.9731 195.427 39.3425 193.533 36.0131C191.629 32.6658 189.073 30.7184 186.338 30.7184C183.604 30.7184 181.048 32.6658 179.144 36.0131C177.249 39.3425 176.061 43.9731 176.061 49.1153Z" fill="white" stroke="#020202" stroke-width="0.5"/>
<path d="M16.0868 62.5765C17.8742 69.7558 26.3644 74.2429 30.3861 75.589C28.1518 78.1287 22.9683 83.3067 20.1085 83.6657C16.5336 84.1144 4.46854 68.8584 2.68112 62.5765C0.8937 56.2946 7.14967 44.6283 9.38394 39.6925C11.6182 34.7568 10.2776 29.821 9.38394 20.3982C8.66897 12.8599 2.83305 6.48833 -9.53674e-06 4.2448C0.74177 2.15384 3.21734 -1.49863 7.14967 0.65516C10.2776 1.10387 19.2147 15.0137 20.1085 20.3982C21.0022 25.7827 19.2147 38.3464 16.0868 44.6283C12.9588 50.9102 13.8525 53.6024 16.0868 62.5765Z" fill="#F2AD51"/>
<path d="M141.653 92.191H131.822V113.684C131.822 114.698 132.644 115.524 133.654 115.524H141.653V92.191Z" fill="#F2AD51"/>
<path d="M136.854 110.92L133.038 112.84C132.135 113.298 131.768 114.402 132.224 115.308L140.143 131.184C141.063 133.032 143.306 133.777 145.147 132.853L147.265 131.785C149.106 130.861 149.848 128.608 148.928 126.759L141.858 112.589C140.938 110.741 138.695 109.996 136.854 110.92Z" fill="#F2AD51"/>
<path d="M31.8635 104.762L39.7752 110.621L25.983 129.399L18.0713 123.54L31.8635 104.762Z" fill="#F2AD51"/>
<path d="M27.8212 88.6014H39.207C39.518 88.6014 39.7701 88.8546 39.7701 89.1668V110.471C39.7701 110.784 39.518 111.037 39.207 111.037H27.8212C27.5102 111.037 27.2582 110.784 27.2582 110.471V89.1668C27.2582 88.8546 27.5102 88.6014 27.8212 88.6014Z" fill="#F2AD51"/>
<path d="M151.832 136.864C145.662 136.864 140.661 135.056 140.661 132.826C140.661 130.596 145.662 128.787 151.832 128.787C158.002 128.787 163.004 130.596 163.004 132.826C163.004 135.056 158.002 136.864 151.832 136.864Z" fill="#EFCD81"/>
<path d="M24.4079 133.504C19.5827 129.643 16.7933 125.099 18.1775 123.355C19.5617 121.611 24.5953 123.327 29.4205 127.188C34.2457 131.049 37.0351 135.593 35.6509 137.337C34.2667 139.081 29.233 137.365 24.4079 133.504Z" fill="#EFCD81"/>
<path d="M189.02 58.3318C187.539 58.3318 186.338 57.3273 186.338 56.0883C186.338 54.8492 187.539 53.8447 189.02 53.8447C190.5 53.8447 191.701 54.8492 191.701 56.0883C191.701 57.3273 190.5 58.3318 189.02 58.3318Z" fill="#0C0B0B"/>
<path d="M197.805 66.7763C197.805 66.7763 195.481 66.1841 194.114 66.3546C192.746 66.5251 191.066 66.552 189.538 67.0725" stroke="#050403" stroke-width="0.5"/>
<path d="M197.438 68.8853C197.438 68.8853 194.757 67.4225 193.184 67.8264C191.611 68.2302 189.663 68.311 187.911 69.6122" stroke="#050403" stroke-width="0.5"/>
<path d="M197.805 70.2494C197.805 70.2494 195.499 68.9661 194.149 69.3161C192.8 69.6661 191.129 69.7469 189.618 70.8866" stroke="#050403" stroke-width="0.5"/>
<path d="M131.545 71.084L126.889 80.9555L129.329 85.3169L129.105 94.0218L127.336 86.1874L124.002 80.9555L129.105 72.5378L131.545 71.084Z" fill="#EFCD81"/>
<path d="M141.179 72.5826L136.514 77.2582L138.954 79.3222L138.73 83.4503L136.961 79.735L133.627 77.2582L138.73 73.2737L141.179 72.5826Z" fill="#EFCD81"/>
<path d="M120.231 68.4994L113.483 74.8441L117.013 77.653L116.692 83.2528L114.127 78.2094L109.31 74.8441L116.692 69.4327L120.231 68.4994Z" fill="#EFCD81"/>
<path d="M107.915 68.4994L104.85 80.3362L106.459 85.5681L106.307 96.014L105.145 86.6091L102.946 80.3362L106.307 70.2404L107.915 68.4994Z" fill="#EFCD81"/>
<path d="M97.5841 67.2969L93.4194 75.2838L95.6001 78.8017L95.4035 85.8464L93.8127 79.5106L90.8366 75.2838L95.4035 68.4725L97.5841 67.2969Z" fill="#EFCD81"/>
<path d="M85.671 69.0917L78.557 77.7607L82.2838 81.5836L81.9442 89.2386L79.2363 82.3554L74.151 77.7607L81.9442 70.366L85.671 69.0917Z" fill="#EFCD81"/>
<path d="M69.9864 68.6968L65.8128 78.0478L67.9934 82.1759L67.7968 90.4321L66.206 83.0015L63.2299 78.0478L67.7968 70.0698L69.9864 68.6968Z" fill="#EFCD81"/>
<path d="M60.0483 68.8943L55.8837 79.0261L58.0643 83.4862L57.8677 92.4244L56.2769 84.3836L53.3008 79.0261L57.8677 70.384L60.0483 68.8943Z" fill="#EFCD81"/>
<path d="M44.0241 71.0032L43.0231 80.3811L46.3567 83.1182L48.7339 90.1898L44.9357 84.4374L40.6012 81.2785L42.3976 72.9236L44.0241 71.0032Z" fill="#EFCD81"/>
<path d="M87.0651 101.174C63.2103 101.174 43.8722 98.9483 43.8722 96.2025C43.8722 93.4567 63.2103 91.2308 87.0651 91.2308C110.92 91.2308 130.258 93.4567 130.258 96.2025C130.258 98.9483 110.92 101.174 87.0651 101.174Z" fill="#EFCD81"/>
</g>
<defs>
<clipPath id="clip0_22_121">
<rect width="206" height="139" fill="white" transform="matrix(-1 0 0 1 206 0)"/>
</clipPath>
</defs>
</svg>
