<svg width="149" height="68" viewBox="0 0 149 68" fill="none" xmlns="http://www.w3.org/2000/svg">
<g clip-path="url(#clip0_22_158)">
<path d="M147.145 45.9896C149.584 42.6415 147.218 36.764 141.861 32.8618C136.504 28.9595 130.184 28.5103 127.746 31.8584C125.307 35.2065 127.672 41.084 133.029 44.9863C138.386 48.8885 144.706 49.3377 147.145 45.9896Z" fill="#89690E"/>
<path d="M85.5 66.8001C114.495 66.8001 138 55.1595 138 40.8C138 26.4406 114.495 14.8 85.5 14.8C56.5051 14.8 33 26.4406 33 40.8C33 55.1595 56.5051 66.8001 85.5 66.8001Z" fill="#89690E"/>
<path d="M29 46.8C37.8366 46.8 45 39.6366 45 30.8C45 21.9635 37.8366 14.8 29 14.8C20.1634 14.8 13 21.9635 13 30.8C13 39.6366 20.1634 46.8 29 46.8Z" fill="#89690E"/>
<path d="M11 43.8C17.0751 43.8 22 39.3229 22 33.8C22 28.2772 17.0751 23.8 11 23.8C4.92487 23.8 0 28.2772 0 33.8C0 39.3229 4.92487 43.8 11 43.8Z" fill="#89690E"/>
<path d="M35 18.8C36.1046 18.8 37 17.0092 37 14.8C37 12.5909 36.1046 10.8 35 10.8C33.8954 10.8 33 12.5909 33 14.8C33 17.0092 33.8954 18.8 35 18.8Z" fill="#EFEDCA"/>
<path d="M29.5 17.7999C29.5 22.6999 28.1 27.1 25.8 30.2C23.5 33.4 20.4 35.2999 17 35.2999C13.6 35.2999 10.5 33.4 8.2 30.2C5.9 27 4.5 22.5999 4.5 17.7999C4.5 12.9999 5.9 8.49995 8.2 5.29995C10.5 2.09995 13.6 0.199951 17 0.199951C20.4 0.199951 23.5 2.09995 25.8 5.29995C28.1 8.49995 29.5 12.9 29.5 17.7999Z" fill="white" stroke="#070606" stroke-width="0.5"/>
<path d="M13 23.8C15.2091 23.8 17 22.0092 17 19.8C17 17.5909 15.2091 15.8 13 15.8C10.7909 15.8 9 17.5909 9 19.8C9 22.0092 10.7909 23.8 13 23.8Z" fill="black"/>
<path d="M66.1 36.7C73.3902 36.7 79.3 32.5362 79.3 27.4C79.3 22.2637 73.3902 18.1 66.1 18.1C58.8098 18.1 52.9 22.2637 52.9 27.4C52.9 32.5362 58.8098 36.7 66.1 36.7Z" fill="#EFEDCA"/>
<path d="M115.3 29.5C118.503 29.5 121.1 27.4406 121.1 24.9C121.1 22.3595 118.503 20.3 115.3 20.3C112.097 20.3 109.5 22.3595 109.5 24.9C109.5 27.4406 112.097 29.5 115.3 29.5Z" fill="#EFEDCA"/>
<path d="M52.9 45.9001C56.1033 45.9001 58.7 44.1987 58.7 42.1C58.7 40.0014 56.1033 38.3 52.9 38.3C49.6968 38.3 47.1 40.0014 47.1 42.1C47.1 44.1987 49.6968 45.9001 52.9 45.9001Z" fill="#EFEDCA"/>
<path d="M96.4 31.5C101.26 31.5 105.2 28.9928 105.2 25.9C105.2 22.8073 101.26 20.3 96.4 20.3C91.5399 20.3 87.6 22.8073 87.6 25.9C87.6 28.9928 91.5399 31.5 96.4 31.5Z" fill="#EFEDCA"/>
<path d="M82.4 54.1C87.7019 54.1 92 51.4137 92 48.1C92 44.7863 87.7019 42.1 82.4 42.1C77.0981 42.1 72.8 44.7863 72.8 48.1C72.8 51.4137 77.0981 54.1 82.4 54.1Z" fill="#EFEDCA"/>
<path d="M84.4 66.8001C102.902 66.8001 117.9 64.3376 117.9 61.3C117.9 58.2625 102.902 55.8 84.4 55.8C65.8985 55.8 50.9 58.2625 50.9 61.3C50.9 64.3376 65.8985 66.8001 84.4 66.8001Z" fill="#EFEDCA"/>
<path d="M123.5 67.6999C127.09 67.6999 130 62.9989 130 57.2C130 51.401 127.09 46.7 123.5 46.7C119.91 46.7 117 51.401 117 57.2C117 62.9989 119.91 67.6999 123.5 67.6999Z" fill="#89690E"/>
<path d="M48.5 67.6999C50.433 67.6999 52 63.4467 52 58.2C52 52.9532 50.433 48.7 48.5 48.7C46.567 48.7 45 52.9532 45 58.2C45 63.4467 46.567 67.6999 48.5 67.6999Z" fill="#89690E"/>
<path d="M115.5 52.6C121.686 52.6 126.7 49.1974 126.7 45C126.7 40.8027 121.686 37.4 115.5 37.4C109.314 37.4 104.3 40.8027 104.3 45C104.3 49.1974 109.314 52.6 115.5 52.6Z" fill="#EFEDCA"/>
</g>
<defs>
<clipPath id="clip0_22_158">
<rect width="148.1" height="67.8" fill="white"/>
</clipPath>
</defs>
</svg>
