<svg width="109" height="155" viewBox="0 0 109 155" fill="none" xmlns="http://www.w3.org/2000/svg">
<g clip-path="url(#clip0_22_76)">
<path d="M33.0045 119.606L41.0425 122.291L33.0045 146.579L27.4022 144.748C26.0626 144.26 25.2101 142.795 25.6972 141.331L33.0045 119.606Z" fill="#777676"/>
<path d="M24.3575 92.7559C31.42 92.7559 37.1453 71.9918 37.1453 46.378C37.1453 20.7641 31.42 0 24.3575 0C17.2951 0 11.5698 20.7641 11.5698 46.378C11.5698 71.9918 17.2951 92.7559 24.3575 92.7559Z" fill="#777676"/>
<path d="M30.4469 93.9764C37.5094 93.9764 43.2346 73.2122 43.2346 47.5984C43.2346 21.9846 37.5094 1.22046 30.4469 1.22046C23.3845 1.22046 17.6592 21.9846 17.6592 47.5984C17.6592 73.2122 23.3845 93.9764 30.4469 93.9764Z" fill="#D9D9D9"/>
<path d="M104.158 135.895C110.887 121.19 99.9846 101.753 79.8082 92.4822C59.6318 83.2111 37.8212 87.6162 31.0929 102.321C24.3646 117.026 35.2664 136.463 55.4429 145.734C75.6193 155.005 97.4299 150.6 104.158 135.895Z" fill="#D9D9D9"/>
<path d="M22.5307 112.283C30.6021 112.283 37.1453 103.814 37.1453 93.3662C37.1453 82.9184 30.6021 74.4489 22.5307 74.4489C14.4593 74.4489 7.9162 82.9184 7.9162 93.3662C7.9162 103.814 14.4593 112.283 22.5307 112.283Z" fill="#D9D9D9"/>
<path d="M11.5698 117.165C17.6234 117.165 22.5307 114.16 22.5307 110.453C22.5307 106.745 17.6234 103.74 11.5698 103.74C5.5163 103.74 0.60894 106.745 0.60894 110.453C0.60894 114.16 5.5163 117.165 11.5698 117.165Z" fill="#D9D9D9"/>
<path d="M3.04469 106.181C4.38992 106.181 5.48045 105.088 5.48045 103.74C5.48045 102.392 4.38992 101.299 3.04469 101.299C1.69946 101.299 0.60894 102.392 0.60894 103.74C0.60894 105.088 1.69946 106.181 3.04469 106.181Z" fill="#231F20" stroke="#231F20" stroke-miterlimit="10"/>
<path d="M28.0112 122.047C33.0558 122.047 37.1453 117.676 37.1453 112.283C37.1453 106.891 33.0558 102.52 28.0112 102.52C22.9666 102.52 18.8771 106.891 18.8771 112.283C18.8771 117.676 22.9666 122.047 28.0112 122.047Z" fill="#D9D9D9"/>
<path d="M76.1173 155C90.9149 155 102.911 152.814 102.911 150.118C102.911 147.422 90.9149 145.236 76.1173 145.236C61.3198 145.236 49.324 147.422 49.324 150.118C49.324 152.814 61.3198 155 76.1173 155Z" fill="#D9D9D9"/>
<path d="M102.302 112.284C106.001 112.284 109 108.732 109 104.35C109 99.9691 106.001 96.4174 102.302 96.4174C98.6023 96.4174 95.6034 99.9691 95.6034 104.35C95.6034 108.732 98.6023 112.284 102.302 112.284Z" fill="#D9D9D9"/>
<path d="M14.0056 100.079C16.696 100.079 18.8771 98.1662 18.8771 95.8071C18.8771 93.4479 16.696 91.5354 14.0056 91.5354C11.3151 91.5354 9.13408 93.4479 9.13408 95.8071C9.13408 98.1662 11.3151 100.079 14.0056 100.079Z" fill="#FFFFFE"/>
<path d="M14.0056 98.8583C14.6782 98.8583 15.2235 98.3119 15.2235 97.6378C15.2235 96.9638 14.6782 96.4174 14.0056 96.4174C13.333 96.4174 12.7877 96.9638 12.7877 97.6378C12.7877 98.3119 13.333 98.8583 14.0056 98.8583Z" fill="#231F20"/>
<path d="M57.4672 146.321C58.3332 145.118 54.7463 141.042 49.4556 137.216C44.165 133.389 39.1742 131.262 38.3082 132.465C37.4423 133.667 41.0292 137.744 46.3198 141.57C51.6104 145.396 56.6012 147.523 57.4672 146.321Z" fill="#EDEDED"/>
<path d="M35.4402 123.268L43.4782 125.953L36.2927 147.311C35.8056 148.898 33.9788 149.874 32.3955 149.264L29.9598 148.409C28.4983 147.921 27.6458 146.213 28.133 144.748L35.4402 123.268Z" fill="#D9D9D9"/>
</g>
<defs>
<clipPath id="clip0_22_76">
<rect width="109" height="155" fill="white"/>
</clipPath>
</defs>
</svg>
