<svg width="45" height="45" viewBox="0 0 45 45" fill="none" xmlns="http://www.w3.org/2000/svg">
<path d="M22.5 0C34.9393 0 45 10.0607 45 22.5C45 34.9393 34.9393 45 22.5 45C10.0607 45 0 34.9393 0 22.5C0 10.0607 10.0607 0 22.5 0ZM18.3857 34.3607C28.35 34.3607 33.8143 26.1 33.8143 18.9321V18.225C34.875 17.4536 35.8071 16.4893 36.5143 15.3964C35.55 15.8143 34.4893 16.1036 33.3964 16.2643C34.5214 15.5893 35.3893 14.5286 35.775 13.275C34.7143 13.8857 33.5571 14.3357 32.3357 14.5929C31.3393 13.5321 29.925 12.8893 28.3821 12.8893C25.3929 12.8893 22.95 15.3321 22.95 18.3214C22.95 18.7393 22.9821 19.1571 23.1107 19.5429C18.6107 19.3179 14.5929 17.1643 11.925 13.8857C11.475 14.6893 11.1857 15.6214 11.1857 16.6179C11.1857 18.4821 12.15 20.1536 13.5964 21.1179C12.6964 21.1179 11.8607 20.8607 11.1536 20.4429V20.5071C11.1536 23.1429 13.0179 25.3286 15.4929 25.8429C15.0429 25.9714 14.5607 26.0357 14.0786 26.0357C13.725 26.0357 13.4036 26.0036 13.05 25.9393C13.725 28.0929 15.75 29.6679 18.0964 29.7C16.2321 31.1464 13.8857 32.0143 11.3464 32.0143C10.8964 32.0143 10.4786 32.0143 10.0607 31.95C12.4393 33.4929 15.3 34.3929 18.3536 34.3929" fill="black"/>
</svg>
